# xmcd CD database file
#
# Track frame offsets:
#	150
#	13250
#	25605
#	39082
#	59062
#	76487
#	95300
#	110847
#	132032
#	148087
#	161910
#	176580
#	194937
#	212795
#	232805
#	251700
#	265330
#	278717
#	295705
#	315517
#	327525
#
# Disc length: 4596 seconds
#
# Revision: 0
# Processed by: cddbd v1.5.1PL2 Copyright (c) Steve Scherf et al.
# Submitted via: CDex 1.51
#
DISCID=3b11f215
DTITLE=amin etc - chaichai
DYEAR=2005
DGENRE=Other
TTITLE0=雷電
TTITLE1=Changing Partners
TTITLE2=ジュピター
TTITLE3=卒業写真
TTITLE4=木綿のハンカチーフ
TTITLE5=花
TTITLE6=夜空ノムコウ
TTITLE7=Your Song
TTITLE8=あの素晴らしい愛をもう一度
TTITLE9=白い色は恋人の色
TTITLE10=少年時代
TTITLE11=君がいるだけで
TTITLE12=スカボロー・フェア
TTITLE13=瞳をとじて
TTITLE14=Time After Time
TTITLE15=夜来香
TTITLE16=Shall We Dance?
TTITLE17=大きな古時計
TTITLE18=アメイジング・グレイス
TTITLE19=Spicks and Specks
TTITLE20=大きな河と小さな恋（X'mas Ver.）
EXTD=YEAR: 200511
EXTT0=
EXTT1=
EXTT2=
EXTT3=
EXTT4=
EXTT5=
EXTT6=
EXTT7=
EXTT8=
EXTT9=
EXTT10=
EXTT11=
EXTT12=
EXTT13=
EXTT14=
EXTT15=
EXTT16=
EXTT17=
EXTT18=
EXTT19=
EXTT20=
PLAYORDER=
